<?xml version="1.0" standalone="no"?>
<!DOCTYPE svg PUBLIC "-//W3C//DTD SVG 20010904//EN"
 "http://www.w3.org/TR/2001/REC-SVG-20010904/DTD/svg10.dtd">
<svg version="1.0" xmlns="http://www.w3.org/2000/svg"
 width="600.000000pt" height="600.000000pt" viewBox="0 0 600.000000 600.000000"
 preserveAspectRatio="xMidYMid meet">
<metadata>
Created by potrace 1.11, written by Peter Selinger 2001-2013
</metadata>
<g transform="translate(0.000000,600.000000) scale(0.100000,-0.100000)"
fill="#000000" stroke="none">
<path d="M2698 4905 c-2 -2 -77 -6 -168 -10 -91 -3 -188 -8 -217 -10 -28 -2
-102 -6 -165 -10 -62 -3 -131 -8 -153 -10 -22 -1 -96 -6 -165 -9 -69 -4 -141
-9 -160 -11 -19 -2 -78 -7 -130 -10 -52 -4 -106 -8 -120 -10 -14 -2 -59 -7
-100 -10 -41 -4 -88 -9 -105 -11 -16 -2 -58 -6 -93 -9 -35 -4 -73 -8 -85 -11
-12 -2 -42 -7 -67 -10 -123 -14 -177 -30 -220 -62 -87 -66 -341 -347 -508
-562 -45 -58 -87 -111 -93 -118 -28 -34 -123 -181 -136 -210 -12 -28 -12 -37
2 -65 15 -31 109 -147 243 -297 94 -105 558 -568 737 -736 224 -210 283 -265
307 -286 18 -15 90 -81 192 -173 6 -5 45 -39 86 -75 41 -36 77 -67 80 -70 3
-3 32 -28 65 -55 33 -28 65 -55 70 -61 6 -5 51 -44 100 -85 50 -40 92 -76 95
-79 3 -3 25 -21 50 -40 25 -19 47 -37 50 -40 7 -9 181 -146 280 -221 198 -150
487 -347 575 -391 17 -8 52 -27 78 -42 l48 -27 28 21 c16 11 32 20 36 20 13 0
278 181 400 273 216 163 369 287 670 541 33 28 62 53 65 56 3 3 59 52 125 110
66 58 127 112 135 120 18 16 98 88 151 135 46 39 247 223 280 255 14 14 88 84
165 155 306 288 706 697 815 835 52 65 60 83 50 117 -33 114 -259 484 -420
685 -77 97 -226 249 -276 281 -41 27 -126 53 -205 63 -25 3 -52 7 -60 9 -21 6
-66 13 -120 19 -102 12 -146 17 -167 21 -12 2 -57 6 -100 10 -43 4 -87 8 -98
10 -11 1 -56 6 -100 9 -44 4 -98 9 -120 11 -22 3 -71 7 -110 10 -38 3 -97 7
-130 10 -118 9 -339 23 -470 30 -49 3 -135 8 -190 11 -102 6 -722 13 -727 9z"/>
</g>
</svg>
